<svg version="1.1" xmlns="http://www.w3.org/2000/svg" viewBox="0 0 1460 1632" width="1460" height="1632"><!-- svg-source:excalidraw --><metadata></metadata><defs><style class="style-fonts">
      </style></defs><rect x="0" y="0" width="1460" height="1632" fill="#ffffff"></rect><g stroke-linecap="round" transform="translate(10 10) rotate(0 720 35)"><path d="M0 0 C288.65 0, 577.29 0, 1440 0 M0 0 C575.11 0, 1150.22 0, 1440 0 M1440 0 C1440 21.93, 1440 43.87, 1440 70 M1440 0 C1440 22.97, 1440 45.94, 1440 70 M1440 70 C934.14 70, 428.28 70, 0 70 M1440 70 C1021.07 70, 602.14 70, 0 70 M0 70 C0 51.19, 0 32.37, 0 0 M0 70 C0 45.35, 0 20.7, 0 0" stroke="#6b7280" stroke-width="2" fill="none"></path></g><g transform="translate(10 32) rotate(0 720 21.5)"><text x="720" y="25.2205078125" font-family="Helvetica, Segoe UI Emoji" font-size="26px" fill="#1f2937" text-anchor="middle" style="white-space: pre;" direction="ltr" dominant-baseline="alphabetic">SCADA Solutions — Navigation Structure</text></g><g stroke-linecap="round" transform="translate(10 80) rotate(0 720 40)"><path d="M0 0 C288.67 0, 577.35 0, 1440 0 M0 0 C413.79 0, 827.59 0, 1440 0 M1440 0 C1440 20.31, 1440 40.62, 1440 80 M1440 0 C1440 18.34, 1440 36.69, 1440 80 M1440 80 C867.83 80, 295.65 80, 0 80 M1440 80 C1073.43 80, 706.87 80, 0 80 M0 80 C0 61.48, 0 42.96, 0 0 M0 80 C0 51.34, 0 22.68, 0 0" stroke="#6b7280" stroke-width="2" fill="none"></path></g><g stroke-linecap="round" transform="translate(10 80) rotate(0 150 40)"><path d="M0 0 C60.14 0, 120.29 0, 300 0 M0 0 C69.4 0, 138.81 0, 300 0 M300 0 C300 25.93, 300 51.86, 300 80 M300 0 C300 30.39, 300 60.78, 300 80 M300 80 C203.89 80, 107.78 80, 0 80 M300 80 C199.09 80, 98.17 80, 0 80 M0 80 C0 54.97, 0 29.94, 0 0 M0 80 C0 59.1, 0 38.2, 0 0" stroke="#9ca3af" stroke-width="1" fill="none"></path></g><g transform="translate(26 110) rotate(0 134 11.5)"><text x="0" y="11.640234374999999" font-family="Helvetica, Segoe UI Emoji" font-size="12px" fill="#6b7280" text-anchor="start" style="white-space: pre;" direction="ltr" dominant-baseline="alphabetic">[scada-solutions-logo.png]</text></g><g transform="translate(320 110) rotate(0 410 12.5)"><text x="410" y="12.61025390625" font-family="Helvetica, Segoe UI Emoji" font-size="13px" fill="#1f2937" text-anchor="middle" style="white-space: pre;" direction="ltr" dominant-baseline="alphabetic">Home ▾  |  Services ▾  |  Products ▾  |  Company ▾  |  Wind Power ▾  |  Careers ▾</text></g><g stroke-linecap="round" transform="translate(1150 94) rotate(0 140 26)"><path d="M13 0 C73.52 0, 134.04 0, 267 0 C275.67 0, 280 4.33, 280 13 C280 19.24, 280 25.47, 280 39 C280 47.67, 275.67 52, 267 52 C173.72 52, 80.43 52, 13 52 C4.33 52, 0 47.67, 0 39 C0 32.68, 0 26.37, 0 13 C0 4.33, 4.33 0, 13 0" stroke="none" stroke-width="0" fill="#4466cc"></path><path d="M13 0 C63.93 0, 114.86 0, 267 0 M13 0 C79.88 0, 146.76 0, 267 0 M267 0 C275.67 0, 280 4.33, 280 13 M267 0 C275.67 0, 280 4.33, 280 13 M280 13 C280 22.37, 280 31.73, 280 39 M280 13 C280 18.89, 280 24.78, 280 39 M280 39 C280 47.67, 275.67 52, 267 52 M280 39 C280 47.67, 275.67 52, 267 52 M267 52 C176.75 52, 86.5 52, 13 52 M267 52 C172.54 52, 78.09 52, 13 52 M13 52 C4.33 52, 0 47.67, 0 39 M13 52 C4.33 52, 0 47.67, 0 39 M0 39 C0 30.61, 0 22.22, 0 13 M0 39 C0 29.67, 0 20.35, 0 13 M0 13 C0 4.33, 4.33 0, 13 0 M0 13 C0 4.33, 4.33 0, 13 0" stroke="#4466cc" stroke-width="1" fill="none"></path></g><g transform="translate(1160 110) rotate(0 130 12.5)"><text x="130" y="12.61025390625" font-family="Helvetica, Segoe UI Emoji" font-size="13px" fill="#ffffff" text-anchor="middle" style="white-space: pre;" direction="ltr" dominant-baseline="alphabetic">[ Contact Us ]</text></g><g stroke-linecap="round" transform="translate(10 180) rotate(0 720 208)"><path d="M0 0 C288.75 0, 577.5 0, 1440 0 M0 0 C505.85 0, 1011.69 0, 1440 0 M1440 0 C1440 114.6, 1440 229.2, 1440 416 M1440 0 C1440 138.39, 1440 276.78, 1440 416 M1440 416 C956.88 416, 473.77 416, 0 416 M1440 416 C942.52 416, 445.04 416, 0 416 M0 416 C0 282.98, 0 149.95, 0 0 M0 416 C0 259.38, 0 102.76, 0 0" stroke="#6b7280" stroke-width="2" fill="none"></path></g><g stroke-linecap="round" transform="translate(10 180) rotate(0 720 13)"><path d="M0 0 C288.76 0, 577.53 0, 1440 0 M0 0 C425.19 0, 850.38 0, 1440 0 M1440 0 C1440 8.99, 1440 17.98, 1440 26 M1440 0 C1440 7.36, 1440 14.73, 1440 26 M1440 26 C1067.73 26, 695.45 26, 0 26 M1440 26 C1112.7 26, 785.4 26, 0 26 M0 26 C0 20.77, 0 15.54, 0 0 M0 26 C0 18.73, 0 11.46, 0 0" stroke="#6b7280" stroke-width="1" fill="none"></path></g><g transform="translate(18 185) rotate(0 712 11)"><text x="0" y="10.67021484375" font-family="Helvetica, Segoe UI Emoji" font-size="11px" fill="#6b7280" text-anchor="start" style="white-space: pre;" direction="ltr" dominant-baseline="alphabetic">NAVIGATION DIAGRAM  —  6 top-level nav items with all dropdown links</text></g><g stroke-linecap="round" transform="translate(50 222) rotate(0 105 26)"><path d="M13 0 C49.9 0, 86.8 0, 197 0 M13 0 C83.52 0, 154.03 0, 197 0 M197 0 C205.67 0, 210 4.33, 210 13 M197 0 C205.67 0, 210 4.33, 210 13 M210 13 C210 21.72, 210 30.43, 210 39 M210 13 C210 21.36, 210 29.73, 210 39 M210 39 C210 47.67, 205.67 52, 197 52 M210 39 C210 47.67, 205.67 52, 197 52 M197 52 C139.58 52, 82.17 52, 13 52 M197 52 C136.27 52, 75.53 52, 13 52 M13 52 C4.33 52, 0 47.67, 0 39 M13 52 C4.33 52, 0 47.67, 0 39 M0 39 C0 28.84, 0 18.68, 0 13 M0 39 C0 30.61, 0 22.21, 0 13 M0 13 C0 4.33, 4.33 0, 13 0 M0 13 C0 4.33, 4.33 0, 13 0" stroke="#6b7280" stroke-width="1" fill="none"></path></g><g transform="translate(50 236) rotate(0 105 14.5)"><text x="105" y="15.5203125" font-family="Helvetica, Segoe UI Emoji" font-size="16px" fill="#1f2937" text-anchor="middle" style="white-space: pre;" direction="ltr" dominant-baseline="alphabetic">Home ▾</text></g><g stroke-linecap="round" transform="translate(50 278) rotate(0 105 100)"><path d="M32 0 C61.28 0, 90.57 0, 178 0 M32 0 C71.6 0, 111.2 0, 178 0 M178 0 C199.33 0, 210 10.67, 210 32 M178 0 C199.33 0, 210 10.67, 210 32 M210 32 C210 59.92, 210 87.84, 210 168 M210 32 C210 70.05, 210 108.1, 210 168 M210 168 C210 189.33, 199.33 200, 178 200 M210 168 C210 189.33, 199.33 200, 178 200 M178 200 C123.29 200, 68.58 200, 32 200 M178 200 C120.57 200, 63.14 200, 32 200 M32 200 C10.67 200, 0 189.33, 0 168 M32 200 C10.67 200, 0 189.33, 0 168 M0 168 C0 122.04, 0 76.07, 0 32 M0 168 C0 136.92, 0 105.85, 0 32 M0 32 C0 10.67, 10.67 0, 32 0 M0 32 C0 10.67, 10.67 0, 32 0" stroke="#9ca3af" stroke-width="1" fill="none"></path></g><g stroke-linecap="round" transform="translate(58 288) rotate(0 97 18)"><path d="M9 0 C44.3 0, 79.6 0, 185 0 M9 0 C46.88 0, 84.75 0, 185 0 M185 0 C191 0, 194 3, 194 9 M185 0 C191 0, 194 3, 194 9 M194 9 C194 13.33, 194 17.65, 194 27 M194 9 C194 13.66, 194 18.32, 194 27 M194 27 C194 33, 191 36, 185 36 M194 27 C194 33, 191 36, 185 36 M185 36 C148.73 36, 112.46 36, 9 36 M185 36 C145.4 36, 105.8 36, 9 36 M9 36 C3 36, 0 33, 0 27 M9 36 C3 36, 0 33, 0 27 M0 27 C0 21.39, 0 15.78, 0 9 M0 27 C0 20.14, 0 13.27, 0 9 M0 9 C0 3, 3 0, 9 0 M0 9 C0 3, 3 0, 9 0" stroke="#9ca3af" stroke-width="1" fill="none"></path></g><g transform="translate(64 293) rotate(0 91 12.5)"><text x="0" y="12.61025390625" font-family="Helvetica, Segoe UI Emoji" font-size="13px" fill="#1f2937" text-anchor="start" style="white-space: pre;" direction="ltr" dominant-baseline="alphabetic">Explanation</text></g><g transform="translate(64 309) rotate(0 91 10)"><text x="0" y="9.7001953125" font-family="Helvetica, Segoe UI Emoji" font-size="10px" fill="#6b7280" text-anchor="start" style="white-space: pre;" direction="ltr" dominant-baseline="alphabetic">/#Explanation</text></g><g stroke-linecap="round" transform="translate(58 334) rotate(0 97 18)"><path d="M9 0 C44.31 0, 79.61 0, 185 0 M9 0 C52.5 0, 96 0, 185 0 M185 0 C191 0, 194 3, 194 9 M185 0 C191 0, 194 3, 194 9 M194 9 C194 15.22, 194 21.43, 194 27 M194 9 C194 16.13, 194 23.25, 194 27 M194 27 C194 33, 191 36, 185 36 M194 27 C194 33, 191 36, 185 36 M185 36 C132.18 36, 79.36 36, 9 36 M185 36 C128.69 36, 72.39 36, 9 36 M9 36 C3 36, 0 33, 0 27 M9 36 C3 36, 0 33, 0 27 M0 27 C0 22.82, 0 18.63, 0 9 M0 27 C0 22.68, 0 18.37, 0 9 M0 9 C0 3, 3 0, 9 0 M0 9 C0 3, 3 0, 9 0" stroke="#9ca3af" stroke-width="1" fill="none"></path></g><g transform="translate(64 339) rotate(0 91 12.5)"><text x="0" y="12.61025390625" font-family="Helvetica, Segoe UI Emoji" font-size="13px" fill="#1f2937" text-anchor="start" style="white-space: pre;" direction="ltr" dominant-baseline="alphabetic">Product Overview</text></g><g transform="translate(64 355) rotate(0 91 10)"><text x="0" y="9.7001953125" font-family="Helvetica, Segoe UI Emoji" font-size="10px" fill="#6b7280" text-anchor="start" style="white-space: pre;" direction="ltr" dominant-baseline="alphabetic">/#ProductOverview</text></g><g stroke-linecap="round" transform="translate(58 380) rotate(0 97 18)"><path d="M9 0 C44.31 0, 79.62 0, 185 0 M9 0 C58.13 0, 107.26 0, 185 0 M185 0 C191 0, 194 3, 194 9 M185 0 C191 0, 194 3, 194 9 M194 9 C194 13.51, 194 18.01, 194 27 M194 9 C194 15, 194 20.99, 194 27 M194 27 C194 33, 191 36, 185 36 M194 27 C194 33, 191 36, 185 36 M185 36 C115.63 36, 46.26 36, 9 36 M185 36 C147.19 36, 109.37 36, 9 36 M9 36 C3 36, 0 33, 0 27 M9 36 C3 36, 0 33, 0 27 M0 27 C0 20.64, 0 14.28, 0 9 M0 27 C0 21.63, 0 16.26, 0 9 M0 9 C0 3, 3 0, 9 0 M0 9 C0 3, 3 0, 9 0" stroke="#9ca3af" stroke-width="1" fill="none"></path></g><g transform="translate(64 385) rotate(0 91 12.5)"><text x="0" y="12.61025390625" font-family="Helvetica, Segoe UI Emoji" font-size="13px" fill="#1f2937" text-anchor="start" style="white-space: pre;" direction="ltr" dominant-baseline="alphabetic">FAQs</text></g><g transform="translate(64 401) rotate(0 91 10)"><text x="0" y="9.7001953125" font-family="Helvetica, Segoe UI Emoji" font-size="10px" fill="#6b7280" text-anchor="start" style="white-space: pre;" direction="ltr" dominant-baseline="alphabetic">/#FAQs</text></g><g stroke-linecap="round" transform="translate(58 426) rotate(0 97 18)"><path d="M9 0 C44.32 0, 79.63 0, 185 0 M9 0 C63.75 0, 118.51 0, 185 0 M185 0 C191 0, 194 3, 194 9 M185 0 C191 0, 194 3, 194 9 M194 9 C194 15.4, 194 21.79, 194 27 M194 9 C194 13.86, 194 18.73, 194 27 M194 27 C194 33, 191 36, 185 36 M194 27 C194 33, 191 36, 185 36 M185 36 C134.28 36, 83.56 36, 9 36 M185 36 C130.48 36, 75.96 36, 9 36 M9 36 C3 36, 0 33, 0 27 M9 36 C3 36, 0 33, 0 27 M0 27 C0 22.07, 0 17.13, 0 9 M0 27 C0 20.58, 0 14.15, 0 9 M0 9 C0 3, 3 0, 9 0 M0 9 C0 3, 3 0, 9 0" stroke="#9ca3af" stroke-width="1" fill="none"></path></g><g transform="translate(64 431) rotate(0 91 12.5)"><text x="0" y="12.61025390625" font-family="Helvetica, Segoe UI Emoji" font-size="13px" fill="#1f2937" text-anchor="start" style="white-space: pre;" direction="ltr" dominant-baseline="alphabetic">Contact Us</text></g><g transform="translate(64 447) rotate(0 91 10)"><text x="0" y="9.7001953125" font-family="Helvetica, Segoe UI Emoji" font-size="10px" fill="#6b7280" text-anchor="start" style="white-space: pre;" direction="ltr" dominant-baseline="alphabetic">/#ContactUs</text></g><g stroke-linecap="round" transform="translate(276 222) rotate(0 105 26)"><path d="M13 0 C49.93 0, 86.85 0, 197 0 M13 0 C76.12 0, 139.25 0, 197 0 M197 0 C205.67 0, 210 4.33, 210 13 M197 0 C205.67 0, 210 4.33, 210 13 M210 13 C210 19.77, 210 26.54, 210 39 M210 13 C210 18.39, 210 23.78, 210 39 M210 39 C210 47.67, 205.67 52, 197 52 M210 39 C210 47.67, 205.67 52, 197 52 M197 52 C126.67 52, 56.34 52, 13 52 M197 52 C159.34 52, 121.67 52, 13 52 M13 52 C4.33 52, 0 47.67, 0 39 M13 52 C4.33 52, 0 47.67, 0 39 M0 39 C0 28.73, 0 18.46, 0 13 M0 39 C0 33.4, 0 27.8, 0 13 M0 13 C0 4.33, 4.33 0, 13 0 M0 13 C0 4.33, 4.33 0, 13 0" stroke="#6b7280" stroke-width="1" fill="none"></path></g><g transform="translate(276 236) rotate(0 105 14.5)"><text x="105" y="15.5203125" font-family="Helvetica, Segoe UI Emoji" font-size="16px" fill="#1f2937" text-anchor="middle" style="white-space: pre;" direction="ltr" dominant-baseline="alphabetic">Services ▾</text></g><g stroke-linecap="round" transform="translate(276 278) rotate(0 105 146)"><path d="M32 0 C61.3 0, 90.6 0, 178 0 M32 0 C65.73 0, 99.46 0, 178 0 M178 0 C199.33 0, 210 10.67, 210 32 M178 0 C199.33 0, 210 10.67, 210 32 M210 32 C210 107.32, 210 182.64, 210 260 M210 32 C210 115.32, 210 198.64, 210 260 M210 260 C210 281.33, 199.33 292, 178 292 M210 260 C210 281.33, 199.33 292, 178 292 M178 292 C142.24 292, 106.49 292, 32 292 M178 292 C138.88 292, 99.75 292, 32 292 M32 292 C10.67 292, 0 281.33, 0 260 M32 292 C10.67 292, 0 281.33, 0 260 M0 260 C0 181.97, 0 103.93, 0 32 M0 260 C0 186.81, 0 113.62, 0 32 M0 32 C0 10.67, 10.67 0, 32 0 M0 32 C0 10.67, 10.67 0, 32 0" stroke="#9ca3af" stroke-width="1" fill="none"></path></g><g stroke-linecap="round" transform="translate(284 288) rotate(0 97 18)"><path d="M9 0 C44.33 0, 79.65 0, 185 0 M9 0 C75 0, 141.01 0, 185 0 M185 0 C191 0, 194 3, 194 9 M185 0 C191 0, 194 3, 194 9 M194 9 C194 15.58, 194 22.15, 194 27 M194 9 C194 15.2, 194 21.4, 194 27 M194 27 C194 33, 191 36, 185 36 M194 27 C194 33, 191 36, 185 36 M185 36 C136.38 36, 87.76 36, 9 36 M185 36 C132.27 36, 79.54 36, 9 36 M9 36 C3 36, 0 33, 0 27 M9 36 C3 36, 0 33, 0 27 M0 27 C0 21.31, 0 15.63, 0 9 M0 27 C0 22.07, 0 17.14, 0 9 M0 9 C0 3, 3 0, 9 0 M0 9 C0 3, 3 0, 9 0" stroke="#9ca3af" stroke-width="1" fill="none"></path></g><g transform="translate(290 293) rotate(0 91 12.5)"><text x="0" y="12.61025390625" font-family="Helvetica, Segoe UI Emoji" font-size="13px" fill="#1f2937" text-anchor="start" style="white-space: pre;" direction="ltr" dominant-baseline="alphabetic">Design and Engineering</text></g><g transform="translate(290 309) rotate(0 91 10)"><text x="0" y="9.7001953125" font-family="Helvetica, Segoe UI Emoji" font-size="10px" fill="#6b7280" text-anchor="start" style="white-space: pre;" direction="ltr" dominant-baseline="alphabetic">/#DesignAndEngineering</text></g><g stroke-linecap="round" transform="translate(284 334) rotate(0 97 18)"><path d="M9 0 C44.33 0, 79.66 0, 185 0 M9 0 C45.43 0, 81.86 0, 185 0 M185 0 C191 0, 194 3, 194 9 M185 0 C191 0, 194 3, 194 9 M194 9 C194 13.87, 194 18.73, 194 27 M194 9 C194 14.07, 194 19.14, 194 27 M194 27 C194 33, 191 36, 185 36 M194 27 C194 33, 191 36, 185 36 M185 36 C119.83 36, 54.66 36, 9 36 M185 36 C115.56 36, 46.12 36, 9 36 M9 36 C3 36, 0 33, 0 27 M9 36 C3 36, 0 33, 0 27 M0 27 C0 22.74, 0 18.48, 0 9 M0 27 C0 21.02, 0 15.04, 0 9 M0 9 C0 3, 3 0, 9 0 M0 9 C0 3, 3 0, 9 0" stroke="#9ca3af" stroke-width="1" fill="none"></path></g><g transform="translate(290 339) rotate(0 91 12.5)"><text x="0" y="12.61025390625" font-family="Helvetica, Segoe UI Emoji" font-size="13px" fill="#1f2937" text-anchor="start" style="white-space: pre;" direction="ltr" dominant-baseline="alphabetic">Service and Support</text></g><g transform="translate(290 355) rotate(0 91 10)"><text x="0" y="9.7001953125" font-family="Helvetica, Segoe UI Emoji" font-size="10px" fill="#6b7280" text-anchor="start" style="white-space: pre;" direction="ltr" dominant-baseline="alphabetic">/#ServiceAndSupport</text></g><g stroke-linecap="round" transform="translate(284 380) rotate(0 97 18)"><path d="M9 0 C44.33 0, 79.67 0, 185 0 M9 0 C51.05 0, 93.11 0, 185 0 M185 0 C191 0, 194 3, 194 9 M185 0 C191 0, 194 3, 194 9 M194 9 C194 15.76, 194 22.51, 194 27 M194 9 C194 12.94, 194 16.87, 194 27 M194 27 C194 33, 191 36, 185 36 M194 27 C194 33, 191 36, 185 36 M185 36 C138.48 36, 91.96 36, 9 36 M185 36 C134.06 36, 83.11 36, 9 36 M9 36 C3 36, 0 33, 0 27 M9 36 C3 36, 0 33, 0 27 M0 27 C0 20.56, 0 14.13, 0 9 M0 27 C0 19.96, 0 12.93, 0 9 M0 9 C0 3, 3 0, 9 0 M0 9 C0 3, 3 0, 9 0" stroke="#9ca3af" stroke-width="1" fill="none"></path></g><g transform="translate(290 385) rotate(0 91 12.5)"><text x="0" y="12.61025390625" font-family="Helvetica, Segoe UI Emoji" font-size="13px" fill="#1f2937" text-anchor="start" style="white-space: pre;" direction="ltr" dominant-baseline="alphabetic">Integration</text></g><g transform="translate(290 401) rotate(0 91 10)"><text x="0" y="9.7001953125" font-family="Helvetica, Segoe UI Emoji" font-size="10px" fill="#6b7280" text-anchor="start" style="white-space: pre;" direction="ltr" dominant-baseline="alphabetic">/#Integration</text></g><g stroke-linecap="round" transform="translate(284 426) rotate(0 97 18)"><path d="M9 0 C44.34 0, 79.68 0, 185 0 M9 0 C56.68 0, 104.36 0, 185 0 M185 0 C191 0, 194 3, 194 9 M185 0 C191 0, 194 3, 194 9 M194 9 C194 14.05, 194 19.09, 194 27 M194 9 C194 15.41, 194 21.81, 194 27 M194 27 C194 33, 191 36, 185 36 M194 27 C194 33, 191 36, 185 36 M185 36 C121.93 36, 58.86 36, 9 36 M185 36 C117.35 36, 49.7 36, 9 36 M9 36 C3 36, 0 33, 0 27 M9 36 C3 36, 0 33, 0 27 M0 27 C0 21.99, 0 16.98, 0 9 M0 27 C0 22.51, 0 18.02, 0 9 M0 9 C0 3, 3 0, 9 0 M0 9 C0 3, 3 0, 9 0" stroke="#9ca3af" stroke-width="1" fill="none"></path></g><g transform="translate(290 431) rotate(0 91 12.5)"><text x="0" y="12.61025390625" font-family="Helvetica, Segoe UI Emoji" font-size="13px" fill="#1f2937" text-anchor="start" style="white-space: pre;" direction="ltr" dominant-baseline="alphabetic">Installation</text></g><g transform="translate(290 447) rotate(0 91 10)"><text x="0" y="9.7001953125" font-family="Helvetica, Segoe UI Emoji" font-size="10px" fill="#6b7280" text-anchor="start" style="white-space: pre;" direction="ltr" dominant-baseline="alphabetic">/#Installation</text></g><g stroke-linecap="round" transform="translate(284 472) rotate(0 97 18)"><path d="M9 0 C44.34 0, 79.69 0, 185 0 M9 0 C62.31 0, 115.61 0, 185 0 M185 0 C191 0, 194 3, 194 9 M185 0 C191 0, 194 3, 194 9 M194 9 C194 15.94, 194 22.88, 194 27 M194 9 C194 14.27, 194 19.55, 194 27 M194 27 C194 33, 191 36, 185 36 M194 27 C194 33, 191 36, 185 36 M185 36 C140.58 36, 96.16 36, 9 36 M185 36 C135.84 36, 86.69 36, 9 36 M9 36 C3 36, 0 33, 0 27 M9 36 C3 36, 0 33, 0 27 M0 27 C0 19.81, 0 12.63, 0 9 M0 27 C0 21.46, 0 15.92, 0 9 M0 9 C0 3, 3 0, 9 0 M0 9 C0 3, 3 0, 9 0" stroke="#9ca3af" stroke-width="1" fill="none"></path></g><g transform="translate(290 477) rotate(0 91 12.5)"><text x="0" y="12.61025390625" font-family="Helvetica, Segoe UI Emoji" font-size="13px" fill="#1f2937" text-anchor="start" style="white-space: pre;" direction="ltr" dominant-baseline="alphabetic">Solar Services</text></g><g transform="translate(290 493) rotate(0 91 10)"><text x="0" y="9.7001953125" font-family="Helvetica, Segoe UI Emoji" font-size="10px" fill="#6b7280" text-anchor="start" style="white-space: pre;" direction="ltr" dominant-baseline="alphabetic">/#SolarServices</text></g><g stroke-linecap="round" transform="translate(284 518) rotate(0 97 18)"><path d="M9 0 C44.35 0, 79.7 0, 185 0 M9 0 C67.93 0, 126.86 0, 185 0 M185 0 C191 0, 194 3, 194 9 M185 0 C191 0, 194 3, 194 9 M194 9 C194 14.23, 194 19.46, 194 27 M194 9 C194 13.14, 194 17.29, 194 27 M194 27 C194 33, 191 36, 185 36 M194 27 C194 33, 191 36, 185 36 M185 36 C124.03 36, 63.06 36, 9 36 M185 36 C119.14 36, 53.27 36, 9 36 M9 36 C3 36, 0 33, 0 27 M9 36 C3 36, 0 33, 0 27 M0 27 C0 21.24, 0 15.47, 0 9 M0 27 C0 20.41, 0 13.81, 0 9 M0 9 C0 3, 3 0, 9 0 M0 9 C0 3, 3 0, 9 0" stroke="#9ca3af" stroke-width="1" fill="none"></path></g><g transform="translate(290 523) rotate(0 91 12.5)"><text x="0" y="12.61025390625" font-family="Helvetica, Segoe UI Emoji" font-size="13px" fill="#1f2937" text-anchor="start" style="white-space: pre;" direction="ltr" dominant-baseline="alphabetic">Wind Services</text></g><g transform="translate(290 539) rotate(0 91 10)"><text x="0" y="9.7001953125" font-family="Helvetica, Segoe UI Emoji" font-size="10px" fill="#6b7280" text-anchor="start" style="white-space: pre;" direction="ltr" dominant-baseline="alphabetic">/#WindServices</text></g><g stroke-linecap="round" transform="translate(502 222) rotate(0 105 26)"><path d="M13 0 C49.96 0, 86.92 0, 197 0 M13 0 C80.49 0, 147.98 0, 197 0 M197 0 C205.67 0, 210 4.33, 210 13 M197 0 C205.67 0, 210 4.33, 210 13 M210 13 C210 23.28, 210 33.56, 210 39 M210 13 C210 22.55, 210 32.1, 210 39 M210 39 C210 47.67, 205.67 52, 197 52 M210 39 C210 47.67, 205.67 52, 197 52 M197 52 C152.76 52, 108.51 52, 13 52 M197 52 C147.48 52, 97.95 52, 13 52 M13 52 C4.33 52, 0 47.67, 0 39 M13 52 C4.33 52, 0 47.67, 0 39 M0 39 C0 32.73, 0 26.47, 0 13 M0 39 C0 33.15, 0 27.31, 0 13 M0 13 C0 4.33, 4.33 0, 13 0 M0 13 C0 4.33, 4.33 0, 13 0" stroke="#6b7280" stroke-width="1" fill="none"></path></g><g transform="translate(502 236) rotate(0 105 14.5)"><text x="105" y="15.5203125" font-family="Helvetica, Segoe UI Emoji" font-size="16px" fill="#1f2937" text-anchor="middle" style="white-space: pre;" direction="ltr" dominant-baseline="alphabetic">Products ▾</text></g><g stroke-linecap="round" transform="translate(502 278) rotate(0 105 100)"><path d="M32 0 C61.33 0, 90.66 0, 178 0 M32 0 C69.2 0, 106.39 0, 178 0 M178 0 C199.33 0, 210 10.67, 210 32 M178 0 C199.33 0, 210 10.67, 210 32 M210 32 C210 68.1, 210 104.2, 210 168 M210 32 C210 76.25, 210 120.5, 210 168 M210 168 C210 189.33, 199.33 200, 178 200 M210 168 C210 189.33, 199.33 200, 178 200 M178 200 C133.74 200, 89.48 200, 32 200 M178 200 C129.47 200, 80.93 200, 32 200 M32 200 C10.67 200, 0 189.33, 0 168 M32 200 C10.67 200, 0 189.33, 0 168 M0 168 C0 115.2, 0 62.4, 0 32 M0 168 C0 123.05, 0 78.1, 0 32 M0 32 C0 10.67, 10.67 0, 32 0 M0 32 C0 10.67, 10.67 0, 32 0" stroke="#9ca3af" stroke-width="1" fill="none"></path></g><g stroke-linecap="round" transform="translate(510 288) rotate(0 97 18)"><path d="M9 0 C44.36 0, 79.72 0, 185 0 M9 0 C79.18 0, 149.36 0, 185 0 M185 0 C191 0, 194 3, 194 9 M185 0 C191 0, 194 3, 194 9 M194 9 C194 14.41, 194 19.82, 194 27 M194 9 C194 14.48, 194 19.96, 194 27 M194 27 C194 33, 191 36, 185 36 M194 27 C194 33, 191 36, 185 36 M185 36 C126.13 36, 67.26 36, 9 36 M185 36 C120.92 36, 56.85 36, 9 36 M9 36 C3 36, 0 33, 0 27 M9 36 C3 36, 0 33, 0 27 M0 27 C0 20.49, 0 13.97, 0 9 M0 27 C0 21.9, 0 16.8, 0 9 M0 9 C0 3, 3 0, 9 0 M0 9 C0 3, 3 0, 9 0" stroke="#9ca3af" stroke-width="1" fill="none"></path></g><g transform="translate(516 293) rotate(0 91 12.5)"><text x="0" y="12.61025390625" font-family="Helvetica, Segoe UI Emoji" font-size="13px" fill="#1f2937" text-anchor="start" style="white-space: pre;" direction="ltr" dominant-baseline="alphabetic">SCADA</text></g><g transform="translate(516 309) rotate(0 91 10)"><text x="0" y="9.7001953125" font-family="Helvetica, Segoe UI Emoji" font-size="10px" fill="#6b7280" text-anchor="start" style="white-space: pre;" direction="ltr" dominant-baseline="alphabetic">/scada</text></g><g stroke-linecap="round" transform="translate(510 334) rotate(0 97 18)"><path d="M9 0 C44.36 0, 79.73 0, 185 0 M9 0 C49.61 0, 90.22 0, 185 0 M185 0 C191 0, 194 3, 194 9 M185 0 C191 0, 194 3, 194 9 M194 9 C194 12.7, 194 16.4, 194 27 M194 9 C194 13.35, 194 17.7, 194 27 M194 27 C194 33, 191 36, 185 36 M194 27 C194 33, 191 36, 185 36 M185 36 C144.78 36, 104.56 36, 9 36 M185 36 C139.42 36, 93.84 36, 9 36 M9 36 C3 36, 0 33, 0 27 M9 36 C3 36, 0 33, 0 27 M0 27 C0 21.91, 0 16.82, 0 9 M0 27 C0 20.85, 0 14.69, 0 9 M0 9 C0 3, 3 0, 9 0 M0 9 C0 3, 3 0, 9 0" stroke="#9ca3af" stroke-width="1" fill="none"></path></g><g transform="translate(516 339) rotate(0 91 12.5)"><text x="0" y="12.61025390625" font-family="Helvetica, Segoe UI Emoji" font-size="13px" fill="#1f2937" text-anchor="start" style="white-space: pre;" direction="ltr" dominant-baseline="alphabetic">Communications</text></g><g transform="translate(516 355) rotate(0 91 10)"><text x="0" y="9.7001953125" font-family="Helvetica, Segoe UI Emoji" font-size="10px" fill="#6b7280" text-anchor="start" style="white-space: pre;" direction="ltr" dominant-baseline="alphabetic">/communications</text></g><g stroke-linecap="round" transform="translate(510 380) rotate(0 97 18)"><path d="M9 0 C44.37 0, 79.74 0, 185 0 M9 0 C55.23 0, 101.47 0, 185 0 M185 0 C191 0, 194 3, 194 9 M185 0 C191 0, 194 3, 194 9 M194 9 C194 14.59, 194 20.18, 194 27 M194 9 C194 15.82, 194 22.63, 194 27 M194 27 C194 33, 191 36, 185 36 M194 27 C194 33, 191 36, 185 36 M185 36 C128.23 36, 71.46 36, 9 36 M185 36 C122.71 36, 60.42 36, 9 36 M9 36 C3 36, 0 33, 0 27 M9 36 C3 36, 0 33, 0 27 M0 27 C0 23.34, 0 19.67, 0 9 M0 27 C0 23.39, 0 19.79, 0 9 M0 9 C0 3, 3 0, 9 0 M0 9 C0 3, 3 0, 9 0" stroke="#9ca3af" stroke-width="1" fill="none"></path></g><g transform="translate(516 385) rotate(0 91 12.5)"><text x="0" y="12.61025390625" font-family="Helvetica, Segoe UI Emoji" font-size="13px" fill="#1f2937" text-anchor="start" style="white-space: pre;" direction="ltr" dominant-baseline="alphabetic">Scope of Work Process</text></g><g transform="translate(516 401) rotate(0 91 10)"><text x="0" y="9.7001953125" font-family="Helvetica, Segoe UI Emoji" font-size="10px" fill="#6b7280" text-anchor="start" style="white-space: pre;" direction="ltr" dominant-baseline="alphabetic">/scopeofworkprocess</text></g><g stroke-linecap="round" transform="translate(510 426) rotate(0 97 18)"><path d="M9 0 C44.37 0, 79.74 0, 185 0 M9 0 C60.86 0, 112.72 0, 185 0 M185 0 C191 0, 194 3, 194 9 M185 0 C191 0, 194 3, 194 9 M194 9 C194 12.88, 194 16.76, 194 27 M194 9 C194 14.68, 194 20.37, 194 27 M194 27 C194 33, 191 36, 185 36 M194 27 C194 33, 191 36, 185 36 M185 36 C146.88 36, 108.76 36, 9 36 M185 36 C141.21 36, 97.41 36, 9 36 M9 36 C3 36, 0 33, 0 27 M9 36 C3 36, 0 33, 0 27 M0 27 C0 21.16, 0 15.32, 0 9 M0 27 C0 22.34, 0 17.68, 0 9 M0 9 C0 3, 3 0, 9 0 M0 9 C0 3, 3 0, 9 0" stroke="#9ca3af" stroke-width="1" fill="none"></path></g><g transform="translate(516 431) rotate(0 91 12.5)"><text x="0" y="12.61025390625" font-family="Helvetica, Segoe UI Emoji" font-size="13px" fill="#1f2937" text-anchor="start" style="white-space: pre;" direction="ltr" dominant-baseline="alphabetic">Request a Quote</text></g><g transform="translate(516 447) rotate(0 91 10)"><text x="0" y="9.7001953125" font-family="Helvetica, Segoe UI Emoji" font-size="10px" fill="#6b7280" text-anchor="start" style="white-space: pre;" direction="ltr" dominant-baseline="alphabetic">/requestaquote</text></g><g stroke-linecap="round" transform="translate(728 222) rotate(0 105 26)"><path d="M13 0 C49.99 0, 86.97 0, 197 0 M13 0 C73.1 0, 133.19 0, 197 0 M197 0 C205.67 0, 210 4.33, 210 13 M197 0 C205.67 0, 210 4.33, 210 13 M210 13 C210 21.33, 210 29.67, 210 39 M210 13 C210 19.58, 210 26.15, 210 39 M210 39 C210 47.67, 205.67 52, 197 52 M210 39 C210 47.67, 205.67 52, 197 52 M197 52 C139.84 52, 82.69 52, 13 52 M197 52 C133.75 52, 70.5 52, 13 52 M13 52 C4.33 52, 0 47.67, 0 39 M13 52 C4.33 52, 0 47.67, 0 39 M0 39 C0 32.62, 0 26.25, 0 13 M0 39 C0 30.75, 0 22.5, 0 13 M0 13 C0 4.33, 4.33 0, 13 0 M0 13 C0 4.33, 4.33 0, 13 0" stroke="#6b7280" stroke-width="1" fill="none"></path></g><g transform="translate(728 236) rotate(0 105 14.5)"><text x="105" y="15.5203125" font-family="Helvetica, Segoe UI Emoji" font-size="16px" fill="#1f2937" text-anchor="middle" style="white-space: pre;" direction="ltr" dominant-baseline="alphabetic">Company ▾</text></g><g stroke-linecap="round" transform="translate(728 278) rotate(0 105 77)"><path d="M32 0 C61.35 0, 90.7 0, 178 0 M32 0 C63.33 0, 94.66 0, 178 0 M178 0 C199.33 0, 210 10.67, 210 32 M178 0 C199.33 0, 210 10.67, 210 32 M210 32 C210 67.15, 210 102.29, 210 122 M210 32 C210 50.99, 210 69.98, 210 122 M210 122 C210 143.33, 199.33 154, 178 154 M210 122 C210 143.33, 199.33 154, 178 154 M178 154 C123.49 154, 68.99 154, 32 154 M178 154 C147.77 154, 117.55 154, 32 154 M32 154 C10.67 154, 0 143.33, 0 122 M32 154 C10.67 154, 0 143.33, 0 122 M0 122 C0 86.67, 0 51.35, 0 32 M0 122 C0 101.93, 0 81.86, 0 32 M0 32 C0 10.67, 10.67 0, 32 0 M0 32 C0 10.67, 10.67 0, 32 0" stroke="#9ca3af" stroke-width="1" fill="none"></path></g><g stroke-linecap="round" transform="translate(736 288) rotate(0 97 18)"><path d="M9 0 C44.38 0, 79.76 0, 185 0 M9 0 C72.11 0, 135.22 0, 185 0 M185 0 C191 0, 194 3, 194 9 M185 0 C191 0, 194 3, 194 9 M194 9 C194 13.06, 194 17.12, 194 27 M194 9 C194 16.02, 194 23.04, 194 27 M194 27 C194 33, 191 36, 185 36 M194 27 C194 33, 191 36, 185 36 M185 36 C148.98 36, 112.96 36, 9 36 M185 36 C142.99 36, 100.99 36, 9 36 M9 36 C3 36, 0 33, 0 27 M9 36 C3 36, 0 33, 0 27 M0 27 C0 20.41, 0 13.82, 0 9 M0 27 C0 20.23, 0 13.47, 0 9 M0 9 C0 3, 3 0, 9 0 M0 9 C0 3, 3 0, 9 0" stroke="#9ca3af" stroke-width="1" fill="none"></path></g><g transform="translate(742 293) rotate(0 91 12.5)"><text x="0" y="12.61025390625" font-family="Helvetica, Segoe UI Emoji" font-size="13px" fill="#1f2937" text-anchor="start" style="white-space: pre;" direction="ltr" dominant-baseline="alphabetic">Company Profile</text></g><g transform="translate(742 309) rotate(0 91 10)"><text x="0" y="9.7001953125" font-family="Helvetica, Segoe UI Emoji" font-size="10px" fill="#6b7280" text-anchor="start" style="white-space: pre;" direction="ltr" dominant-baseline="alphabetic">/company</text></g><g stroke-linecap="round" transform="translate(736 334) rotate(0 97 18)"><path d="M9 0 C44.39 0, 79.77 0, 185 0 M9 0 C77.74 0, 146.47 0, 185 0 M185 0 C191 0, 194 3, 194 9 M185 0 C191 0, 194 3, 194 9 M194 9 C194 14.95, 194 20.9, 194 27 M194 9 C194 14.89, 194 20.78, 194 27 M194 27 C194 33, 191 36, 185 36 M194 27 C194 33, 191 36, 185 36 M185 36 C132.43 36, 79.86 36, 9 36 M185 36 C126.29 36, 67.57 36, 9 36 M9 36 C3 36, 0 33, 0 27 M9 36 C3 36, 0 33, 0 27 M0 27 C0 21.83, 0 16.67, 0 9 M0 27 C0 22.78, 0 18.56, 0 9 M0 9 C0 3, 3 0, 9 0 M0 9 C0 3, 3 0, 9 0" stroke="#9ca3af" stroke-width="1" fill="none"></path></g><g transform="translate(742 339) rotate(0 91 12.5)"><text x="0" y="12.61025390625" font-family="Helvetica, Segoe UI Emoji" font-size="13px" fill="#1f2937" text-anchor="start" style="white-space: pre;" direction="ltr" dominant-baseline="alphabetic">Partners and Affiliations</text></g><g transform="translate(742 355) rotate(0 91 10)"><text x="0" y="9.7001953125" font-family="Helvetica, Segoe UI Emoji" font-size="10px" fill="#6b7280" text-anchor="start" style="white-space: pre;" direction="ltr" dominant-baseline="alphabetic">/company#Partners</text></g><g stroke-linecap="round" transform="translate(736 380) rotate(0 97 18)"><path d="M9 0 C44.39 0, 79.78 0, 185 0 M9 0 C48.16 0, 87.32 0, 185 0 M185 0 C191 0, 194 3, 194 9 M185 0 C191 0, 194 3, 194 9 M194 9 C194 13.24, 194 17.48, 194 27 M194 9 C194 13.76, 194 18.52, 194 27 M194 27 C194 33, 191 36, 185 36 M194 27 C194 33, 191 36, 185 36 M185 36 C115.88 36, 46.76 36, 9 36 M185 36 C144.78 36, 104.56 36, 9 36 M9 36 C3 36, 0 33, 0 27 M9 36 C3 36, 0 33, 0 27 M0 27 C0 23.26, 0 19.52, 0 9 M0 27 C0 21.73, 0 16.46, 0 9 M0 9 C0 3, 3 0, 9 0 M0 9 C0 3, 3 0, 9 0" stroke="#9ca3af" stroke-width="1" fill="none"></path></g><g transform="translate(742 385) rotate(0 91 12.5)"><text x="0" y="12.61025390625" font-family="Helvetica, Segoe UI Emoji" font-size="13px" fill="#1f2937" text-anchor="start" style="white-space: pre;" direction="ltr" dominant-baseline="alphabetic">Privacy</text></g><g transform="translate(742 401) rotate(0 91 10)"><text x="0" y="9.7001953125" font-family="Helvetica, Segoe UI Emoji" font-size="10px" fill="#6b7280" text-anchor="start" style="white-space: pre;" direction="ltr" dominant-baseline="alphabetic">/company#Privacy</text></g><g stroke-linecap="round" transform="translate(954 222) rotate(0 105 26)"><path d="M13 0 C50.01 0, 87.01 0, 197 0 M13 0 C59.82 0, 106.64 0, 197 0 M197 0 C205.67 0, 210 4.33, 210 13 M197 0 C205.67 0, 210 4.33, 210 13 M210 13 C210 21.85, 210 30.71, 210 39 M210 13 C210 18.24, 210 23.48, 210 39 M210 39 C210 47.67, 205.67 52, 197 52 M210 39 C210 47.67, 205.67 52, 197 52 M197 52 C144.23 52, 91.47 52, 13 52 M197 52 C137.49 52, 77.97 52, 13 52 M13 52 C4.33 52, 0 47.67, 0 39 M13 52 C4.33 52, 0 47.67, 0 39 M0 39 C0 30.45, 0 21.91, 0 13 M0 39 C0 29.87, 0 20.73, 0 13 M0 13 C0 4.33, 4.33 0, 13 0 M0 13 C0 4.33, 4.33 0, 13 0" stroke="#6b7280" stroke-width="1" fill="none"></path></g><g transform="translate(954 236) rotate(0 105 14.5)"><text x="105" y="15.5203125" font-family="Helvetica, Segoe UI Emoji" font-size="16px" fill="#1f2937" text-anchor="middle" style="white-space: pre;" direction="ltr" dominant-baseline="alphabetic">Wind Power ▾</text></g><g stroke-linecap="round" transform="translate(954 278) rotate(0 105 77)"><path d="M32 0 C61.37 0, 90.73 0, 178 0 M32 0 C82 0, 131.99 0, 178 0 M178 0 C199.33 0, 210 10.67, 210 32 M178 0 C199.33 0, 210 10.67, 210 32 M210 32 C210 50.95, 210 69.9, 210 122 M210 32 C210 64.36, 210 96.72, 210 122 M210 122 C210 143.33, 199.33 154, 178 154 M210 122 C210 143.33, 199.33 154, 178 154 M178 154 C126.98 154, 75.96 154, 32 154 M178 154 C121.54 154, 65.08 154, 32 154 M32 154 C10.67 154, 0 143.33, 0 122 M32 154 C10.67 154, 0 143.33, 0 122 M0 122 C0 97.16, 0 72.33, 0 32 M0 122 C0 98.87, 0 75.74, 0 32 M0 32 C0 10.67, 10.67 0, 32 0 M0 32 C0 10.67, 10.67 0, 32 0" stroke="#9ca3af" stroke-width="1" fill="none"></path></g><g stroke-linecap="round" transform="translate(962 288) rotate(0 97 18)"><path d="M9 0 C44.4 0, 79.8 0, 185 0 M9 0 C59.41 0, 109.82 0, 185 0 M185 0 C191 0, 194 3, 194 9 M185 0 C191 0, 194 3, 194 9 M194 9 C194 13.42, 194 17.84, 194 27 M194 9 C194 15.09, 194 21.19, 194 27 M194 27 C194 33, 191 36, 185 36 M194 27 C194 33, 191 36, 185 36 M185 36 C117.98 36, 50.96 36, 9 36 M185 36 C146.57 36, 108.14 36, 9 36 M9 36 C3 36, 0 33, 0 27 M9 36 C3 36, 0 33, 0 27 M0 27 C0 22.51, 0 18.02, 0 9 M0 27 C0 23.22, 0 19.45, 0 9 M0 9 C0 3, 3 0, 9 0 M0 9 C0 3, 3 0, 9 0" stroke="#9ca3af" stroke-width="1" fill="none"></path></g><g transform="translate(968 293) rotate(0 91 12.5)"><text x="0" y="12.61025390625" font-family="Helvetica, Segoe UI Emoji" font-size="13px" fill="#1f2937" text-anchor="start" style="white-space: pre;" direction="ltr" dominant-baseline="alphabetic">Wind Energy Tutorial</text></g><g transform="translate(968 309) rotate(0 91 10)"><text x="0" y="9.7001953125" font-family="Helvetica, Segoe UI Emoji" font-size="10px" fill="#6b7280" text-anchor="start" style="white-space: pre;" direction="ltr" dominant-baseline="alphabetic">/windenergytutorial</text></g><g stroke-linecap="round" transform="translate(962 334) rotate(0 97 18)"><path d="M9 0 C44.41 0, 79.81 0, 185 0 M9 0 C65.04 0, 121.07 0, 185 0 M185 0 C191 0, 194 3, 194 9 M185 0 C191 0, 194 3, 194 9 M194 9 C194 15.31, 194 21.62, 194 27 M194 9 C194 13.96, 194 18.93, 194 27 M194 27 C194 33, 191 36, 185 36 M194 27 C194 33, 191 36, 185 36 M185 36 C136.63 36, 88.25 36, 9 36 M185 36 C129.86 36, 74.72 36, 9 36 M9 36 C3 36, 0 33, 0 27 M9 36 C3 36, 0 33, 0 27 M0 27 C0 20.33, 0 13.66, 0 9 M0 27 C0 22.17, 0 17.34, 0 9 M0 9 C0 3, 3 0, 9 0 M0 9 C0 3, 3 0, 9 0" stroke="#9ca3af" stroke-width="1" fill="none"></path></g><g transform="translate(968 339) rotate(0 91 12.5)"><text x="0" y="12.61025390625" font-family="Helvetica, Segoe UI Emoji" font-size="13px" fill="#1f2937" text-anchor="start" style="white-space: pre;" direction="ltr" dominant-baseline="alphabetic">Wind Facts</text></g><g transform="translate(968 355) rotate(0 91 10)"><text x="0" y="9.7001953125" font-family="Helvetica, Segoe UI Emoji" font-size="10px" fill="#6b7280" text-anchor="start" style="white-space: pre;" direction="ltr" dominant-baseline="alphabetic">/windenergytutorial#Facts</text></g><g stroke-linecap="round" transform="translate(962 380) rotate(0 97 18)"><path d="M9 0 C44.41 0, 79.82 0, 185 0 M9 0 C70.66 0, 132.32 0, 185 0 M185 0 C191 0, 194 3, 194 9 M185 0 C191 0, 194 3, 194 9 M194 9 C194 13.6, 194 18.2, 194 27 M194 9 C194 12.83, 194 16.66, 194 27 M194 27 C194 33, 191 36, 185 36 M194 27 C194 33, 191 36, 185 36 M185 36 C120.08 36, 55.15 36, 9 36 M185 36 C148.36 36, 111.71 36, 9 36 M9 36 C3 36, 0 33, 0 27 M9 36 C3 36, 0 33, 0 27 M0 27 C0 21.76, 0 16.51, 0 9 M0 27 C0 21.12, 0 15.23, 0 9 M0 9 C0 3, 3 0, 9 0 M0 9 C0 3, 3 0, 9 0" stroke="#9ca3af" stroke-width="1" fill="none"></path></g><g transform="translate(968 385) rotate(0 91 12.5)"><text x="0" y="12.61025390625" font-family="Helvetica, Segoe UI Emoji" font-size="13px" fill="#1f2937" text-anchor="start" style="white-space: pre;" direction="ltr" dominant-baseline="alphabetic">Glossary</text></g><g transform="translate(968 401) rotate(0 91 10)"><text x="0" y="9.7001953125" font-family="Helvetica, Segoe UI Emoji" font-size="10px" fill="#6b7280" text-anchor="start" style="white-space: pre;" direction="ltr" dominant-baseline="alphabetic">/windenergytutorial#Glossary</text></g><g stroke-linecap="round" transform="translate(1180 222) rotate(0 105 26)"><path d="M13 0 C50.02 0, 87.05 0, 197 0 M13 0 C83.35 0, 153.69 0, 197 0 M197 0 C205.67 0, 210 4.33, 210 13 M197 0 C205.67 0, 210 4.33, 210 13 M210 13 C210 22.38, 210 31.75, 210 39 M210 13 C210 22.1, 210 31.2, 210 39 M210 39 C210 47.67, 205.67 52, 197 52 M210 39 C210 47.67, 205.67 52, 197 52 M197 52 C148.62 52, 100.25 52, 13 52 M197 52 C141.22 52, 85.45 52, 13 52 M13 52 C4.33 52, 0 47.67, 0 39 M13 52 C4.33 52, 0 47.67, 0 39 M0 39 C0 33.48, 0 27.97, 0 13 M0 39 C0 28.98, 0 18.96, 0 13 M0 13 C0 4.33, 4.33 0, 13 0 M0 13 C0 4.33, 4.33 0, 13 0" stroke="#6b7280" stroke-width="1" fill="none"></path></g><g transform="translate(1180 236) rotate(0 105 14.5)"><text x="105" y="15.5203125" font-family="Helvetica, Segoe UI Emoji" font-size="16px" fill="#1f2937" text-anchor="middle" style="white-space: pre;" direction="ltr" dominant-baseline="alphabetic">Careers ▾</text></g><g stroke-linecap="round" transform="translate(1180 278) rotate(0 105 77)"><path d="M32 0 C61.38 0, 90.76 0, 178 0 M32 0 C71.46 0, 110.93 0, 178 0 M178 0 C199.33 0, 210 10.67, 210 32 M178 0 C199.33 0, 210 10.67, 210 32 M210 32 C210 52.76, 210 73.51, 210 122 M210 32 C210 59.73, 210 87.45, 210 122 M210 122 C210 143.33, 199.33 154, 178 154 M210 122 C210 143.33, 199.33 154, 178 154 M178 154 C130.46 154, 82.92 154, 32 154 M178 154 C124.5 154, 71.01 154, 32 154 M32 154 C10.67 154, 0 143.33, 0 122 M32 154 C10.67 154, 0 143.33, 0 122 M0 122 C0 89.66, 0 57.31, 0 32 M0 122 C0 95.81, 0 69.62, 0 32 M0 32 C0 10.67, 10.67 0, 32 0 M0 32 C0 10.67, 10.67 0, 32 0" stroke="#9ca3af" stroke-width="1" fill="none"></path></g><g stroke-linecap="round" transform="translate(1188 288) rotate(0 97 18)"><path d="M9 0 C44.42 0, 79.84 0, 185 0 M9 0 C46.71 0, 84.43 0, 185 0 M185 0 C191 0, 194 3, 194 9 M185 0 C191 0, 194 3, 194 9 M194 9 C194 13.78, 194 18.56, 194 27 M194 9 C194 14.17, 194 19.34, 194 27 M194 27 C194 33, 191 36, 185 36 M194 27 C194 33, 191 36, 185 36 M185 36 C122.18 36, 59.35 36, 9 36 M185 36 C114.94 36, 44.89 36, 9 36 M9 36 C3 36, 0 33, 0 27 M9 36 C3 36, 0 33, 0 27 M0 27 C0 21.01, 0 15.01, 0 9 M0 27 C0 22.61, 0 18.22, 0 9 M0 9 C0 3, 3 0, 9 0 M0 9 C0 3, 3 0, 9 0" stroke="#9ca3af" stroke-width="1" fill="none"></path></g><g transform="translate(1194 293) rotate(0 91 12.5)"><text x="0" y="12.61025390625" font-family="Helvetica, Segoe UI Emoji" font-size="13px" fill="#1f2937" text-anchor="start" style="white-space: pre;" direction="ltr" dominant-baseline="alphabetic">North American Jobs</text></g><g transform="translate(1194 309) rotate(0 91 10)"><text x="0" y="9.7001953125" font-family="Helvetica, Segoe UI Emoji" font-size="10px" fill="#6b7280" text-anchor="start" style="white-space: pre;" direction="ltr" dominant-baseline="alphabetic">/careers#NorthAmericanJobs</text></g><g stroke-linecap="round" transform="translate(1188 334) rotate(0 97 18)"><path d="M9 0 C44.42 0, 79.85 0, 185 0 M9 0 C52.34 0, 95.68 0, 185 0 M185 0 C191 0, 194 3, 194 9 M185 0 C191 0, 194 3, 194 9 M194 9 C194 15.67, 194 22.34, 194 27 M194 9 C194 13.04, 194 17.07, 194 27 M194 27 C194 33, 191 36, 185 36 M194 27 C194 33, 191 36, 185 36 M185 36 C140.83 36, 96.65 36, 9 36 M185 36 C133.44 36, 81.87 36, 9 36 M9 36 C3 36, 0 33, 0 27 M9 36 C3 36, 0 33, 0 27 M0 27 C0 22.43, 0 17.86, 0 9 M0 27 C0 21.56, 0 16.12, 0 9 M0 9 C0 3, 3 0, 9 0 M0 9 C0 3, 3 0, 9 0" stroke="#9ca3af" stroke-width="1" fill="none"></path></g><g transform="translate(1194 339) rotate(0 91 12.5)"><text x="0" y="12.61025390625" font-family="Helvetica, Segoe UI Emoji" font-size="13px" fill="#1f2937" text-anchor="start" style="white-space: pre;" direction="ltr" dominant-baseline="alphabetic">European Union Jobs</text></g><g transform="translate(1194 355) rotate(0 91 10)"><text x="0" y="9.7001953125" font-family="Helvetica, Segoe UI Emoji" font-size="10px" fill="#6b7280" text-anchor="start" style="white-space: pre;" direction="ltr" dominant-baseline="alphabetic">/careers#EuropeanUnionJobs</text></g><g stroke-linecap="round" transform="translate(1188 380) rotate(0 97 18)"><path d="M9 0 C44.43 0, 79.86 0, 185 0 M9 0 C57.96 0, 106.93 0, 185 0 M185 0 C191 0, 194 3, 194 9 M185 0 C191 0, 194 3, 194 9 M194 9 C194 13.96, 194 18.92, 194 27 M194 9 C194 15.51, 194 22.01, 194 27 M194 27 C194 33, 191 36, 185 36 M194 27 C194 33, 191 36, 185 36 M185 36 C124.28 36, 63.55 36, 9 36 M185 36 C116.73 36, 48.46 36, 9 36 M9 36 C3 36, 0 33, 0 27 M9 36 C3 36, 0 33, 0 27 M0 27 C0 20.26, 0 13.51, 0 9 M0 27 C0 20.5, 0 14.01, 0 9 M0 9 C0 3, 3 0, 9 0 M0 9 C0 3, 3 0, 9 0" stroke="#9ca3af" stroke-width="1" fill="none"></path></g><g transform="translate(1194 385) rotate(0 91 12.5)"><text x="0" y="12.61025390625" font-family="Helvetica, Segoe UI Emoji" font-size="13px" fill="#1f2937" text-anchor="start" style="white-space: pre;" direction="ltr" dominant-baseline="alphabetic">Applicant Privacy Policy</text></g><g transform="translate(1194 401) rotate(0 91 10)"><text x="0" y="9.7001953125" font-family="Helvetica, Segoe UI Emoji" font-size="10px" fill="#6b7280" text-anchor="start" style="white-space: pre;" direction="ltr" dominant-baseline="alphabetic">/careers#PrivacyPolicy</text></g><g stroke-linecap="round" transform="translate(50 640) rotate(0 680 90)"><path d="M0 0 C273.81 0, 547.62 0, 1360 0 M0 0 C421.83 0, 843.66 0, 1360 0 M1360 0 C1360 71.91, 1360 143.82, 1360 180 M1360 0 C1360 51, 1360 102.01, 1360 180 M1360 180 C1077.36 180, 794.73 180, 0 180 M1360 180 C939.58 180, 519.16 180, 0 180 M0 180 C0 136.16, 0 92.32, 0 0 M0 180 C0 134.94, 0 89.88, 0 0" stroke="#6b7280" stroke-width="2" fill="none"></path></g><g stroke-linecap="round" transform="translate(50 640) rotate(0 680 13)"><path d="M0 0 C273.82 0, 547.64 0, 1360 0 M0 0 C345.65 0, 691.31 0, 1360 0 M1360 0 C1360 7.01, 1360 14.03, 1360 26 M1360 0 C1360 6.08, 1360 12.16, 1360 26 M1360 26 C910.05 26, 460.1 26, 0 26 M1360 26 C828.3 26, 296.61 26, 0 26 M0 26 C0 17.55, 0 9.1, 0 0 M0 26 C0 16.81, 0 7.62, 0 0" stroke="#6b7280" stroke-width="1" fill="none"></path></g><g transform="translate(58 645) rotate(0 672 11)"><text x="0" y="10.67021484375" font-family="Helvetica, Segoe UI Emoji" font-size="11px" fill="#6b7280" text-anchor="start" style="white-space: pre;" direction="ltr" dominant-baseline="alphabetic">LEGEND / NOTES</text></g><g transform="translate(70 680) rotate(0 660 12.5)"><text x="0" y="12.61025390625" font-family="Helvetica, Segoe UI Emoji" font-size="13px" fill="#1f2937" text-anchor="start" style="white-space: pre;" direction="ltr" dominant-baseline="alphabetic">•  Home ▾, Services ▾  —  All links are anchor sections on the Home page (route: /#SectionId). Not separate routes.</text></g><g transform="translate(70 706) rotate(0 660 12.5)"><text x="0" y="12.61025390625" font-family="Helvetica, Segoe UI Emoji" font-size="13px" fill="#1f2937" text-anchor="start" style="white-space: pre;" direction="ltr" dominant-baseline="alphabetic">•  Products ▾  —  Each item is a separate page/route:  /scada  /communications  /scopeofworkprocess  /requestaquote</text></g><g transform="translate(70 732) rotate(0 660 12.5)"><text x="0" y="12.61025390625" font-family="Helvetica, Segoe UI Emoji" font-size="13px" fill="#1f2937" text-anchor="start" style="white-space: pre;" direction="ltr" dominant-baseline="alphabetic">•  Company ▾  —  /company  with anchor-linked sections:  #Partners  #Privacy</text></g><g transform="translate(70 758) rotate(0 660 12.5)"><text x="0" y="12.61025390625" font-family="Helvetica, Segoe UI Emoji" font-size="13px" fill="#1f2937" text-anchor="start" style="white-space: pre;" direction="ltr" dominant-baseline="alphabetic">•  Wind Power ▾  —  /windenergytutorial  with anchor sections:  #Facts  #Glossary</text></g><g transform="translate(70 784) rotate(0 660 12.5)"><text x="0" y="12.61025390625" font-family="Helvetica, Segoe UI Emoji" font-size="13px" fill="#1f2937" text-anchor="start" style="white-space: pre;" direction="ltr" dominant-baseline="alphabetic">•  Careers ▾  —  /careers  with anchor sections:  #NorthAmericanJobs  #EuropeanUnionJobs  #PrivacyPolicy</text></g><g stroke-linecap="round" transform="translate(50 850) rotate(0 680 25)"><path d="M0 0 C273.91 0, 547.82 0, 1360 0 M0 0 C356.42 0, 712.83 0, 1360 0 M1360 0 C1360 18.08, 1360 36.16, 1360 50 M1360 0 C1360 14.39, 1360 28.79, 1360 50 M1360 50 C826.84 50, 293.69 50, 0 50 M1360 50 C865.39 50, 370.79 50, 0 50 M0 50 C0 35.27, 0 20.54, 0 0 M0 50 C0 36.27, 0 22.53, 0 0" stroke="#6b7280" stroke-width="2" fill="none"></path></g><g transform="translate(70 864) rotate(0 660 16)"><text x="0" y="17.4603515625" font-family="Helvetica, Segoe UI Emoji" font-size="18px" fill="#1f2937" text-anchor="start" style="white-space: pre;" direction="ltr" dominant-baseline="alphabetic">SITE ROUTE MAP</text></g><g stroke-linecap="round" transform="translate(50 900) rotate(0 680 216)"><path d="M0 0 C273.93 0, 547.86 0, 1360 0 M0 0 C476.06 0, 952.12 0, 1360 0 M1360 0 C1360 130.54, 1360 261.07, 1360 432 M1360 0 C1360 168.04, 1360 336.08, 1360 432 M1360 432 C1036.21 432, 712.43 432, 0 432 M1360 432 C914.85 432, 469.69 432, 0 432 M0 432 C0 320.84, 0 209.69, 0 0 M0 432 C0 310.71, 0 189.42, 0 0" stroke="#6b7280" stroke-width="2" fill="none"></path></g><g stroke-linecap="round" transform="translate(50 912) rotate(0 680 24)"><path d="M0 0 C273.94 0, 547.89 0, 1360 0 M0 0 C399.89 0, 799.77 0, 1360 0 M1360 0 C1360 17.88, 1360 35.75, 1360 48 M1360 0 C1360 16.3, 1360 32.6, 1360 48 M1360 48 C868.9 48, 377.8 48, 0 48 M1360 48 C1075.57 48, 791.15 48, 0 48 M0 48 C0 31.74, 0 15.49, 0 0 M0 48 C0 29.58, 0 11.15, 0 0" stroke="#9ca3af" stroke-width="1" fill="none"></path></g><g transform="translate(66 918) rotate(0 130 12.5)"><text x="0" y="12.61025390625" font-family="Helvetica, Segoe UI Emoji" font-size="13px" fill="#1f2937" text-anchor="start" style="white-space: pre;" direction="ltr" dominant-baseline="alphabetic">/  (Home)</text></g><g transform="translate(336 918) rotate(0 530 11.5)"><text x="0" y="11.640234374999999" font-family="Helvetica, Segoe UI Emoji" font-size="12px" fill="#6b7280" text-anchor="start" style="white-space: pre;" direction="ltr" dominant-baseline="alphabetic">Sections: #Explanation  #ProductOverview  #FAQs  #ContactUs  #DesignAndEngineering  #ServiceAndSupport  #Integration  #Installation  #SolarServices  #WindServices</text></g><g transform="translate(66 970) rotate(0 130 12.5)"><text x="0" y="12.61025390625" font-family="Helvetica, Segoe UI Emoji" font-size="13px" fill="#1f2937" text-anchor="start" style="white-space: pre;" direction="ltr" dominant-baseline="alphabetic">/scada</text></g><g transform="translate(336 970) rotate(0 530 11.5)"><text x="0" y="11.640234374999999" font-family="Helvetica, Segoe UI Emoji" font-size="12px" fill="#6b7280" text-anchor="start" style="white-space: pre;" direction="ltr" dominant-baseline="alphabetic">Seamless SCADA Solutions, WindCapture™, Scalability, Reporting, Automation, Advanced GUI, Remote Access, Projects (Lalamilo Wind Farm), Water Treatment</text></g><g stroke-linecap="round" transform="translate(50 1016) rotate(0 680 24)"><path d="M0 0 C274.01 0, 548.01 0, 1360 0 M0 0 C291 0, 582 0, 1360 0 M1360 0 C1360 15.54, 1360 31.08, 1360 48 M1360 0 C1360 14.03, 1360 28.07, 1360 48 M1360 48 C848.32 48, 336.65 48, 0 48 M1360 48 C1063.21 48, 766.42 48, 0 48 M0 48 C0 31.41, 0 14.83, 0 0 M0 48 C0 33.65, 0 19.29, 0 0" stroke="#9ca3af" stroke-width="1" fill="none"></path></g><g transform="translate(66 1022) rotate(0 130 12.5)"><text x="0" y="12.61025390625" font-family="Helvetica, Segoe UI Emoji" font-size="13px" fill="#1f2937" text-anchor="start" style="white-space: pre;" direction="ltr" dominant-baseline="alphabetic">/communications</text></g><g transform="translate(336 1022) rotate(0 530 11.5)"><text x="0" y="11.640234374999999" font-family="Helvetica, Segoe UI Emoji" font-size="12px" fill="#6b7280" text-anchor="start" style="white-space: pre;" direction="ltr" dominant-baseline="alphabetic">Distributed Automation (Landis+Gyr), Applications Engineering, Fiber Optic Termination (single-mode, multi-mode, simplex/duplex), Harsh Environment Assemblies</text></g><g transform="translate(66 1074) rotate(0 130 12.5)"><text x="0" y="12.61025390625" font-family="Helvetica, Segoe UI Emoji" font-size="13px" fill="#1f2937" text-anchor="start" style="white-space: pre;" direction="ltr" dominant-baseline="alphabetic">/scopeofworkprocess</text></g><g transform="translate(336 1074) rotate(0 530 11.5)"><text x="0" y="11.640234374999999" font-family="Helvetica, Segoe UI Emoji" font-size="12px" fill="#6b7280" text-anchor="start" style="white-space: pre;" direction="ltr" dominant-baseline="alphabetic">Research &amp; Analysis, Design &amp; Development, Build &amp; Test, Rollout &amp; Support, Project Management (QA, Status Updates, Integration Support, Timelines, Communication Planning)</text></g><g stroke-linecap="round" transform="translate(50 1120) rotate(0 680 24)"><path d="M0 0 C274.07 0, 548.13 0, 1360 0 M0 0 C454.12 0, 908.23 0, 1360 0 M1360 0 C1360 13.2, 1360 26.41, 1360 48 M1360 0 C1360 11.77, 1360 23.54, 1360 48 M1360 48 C827.75 48, 295.49 48, 0 48 M1360 48 C1050.84 48, 741.68 48, 0 48 M0 48 C0 31.08, 0 14.17, 0 0 M0 48 C0 37.72, 0 27.43, 0 0" stroke="#9ca3af" stroke-width="1" fill="none"></path></g><g transform="translate(66 1126) rotate(0 130 12.5)"><text x="0" y="12.61025390625" font-family="Helvetica, Segoe UI Emoji" font-size="13px" fill="#1f2937" text-anchor="start" style="white-space: pre;" direction="ltr" dominant-baseline="alphabetic">/requestaquote</text></g><g transform="translate(336 1126) rotate(0 530 11.5)"><text x="0" y="11.640234374999999" font-family="Helvetica, Segoe UI Emoji" font-size="12px" fill="#6b7280" text-anchor="start" style="white-space: pre;" direction="ltr" dominant-baseline="alphabetic">Form: Contact Name, Title, Phone, Email, Property Type, Company, Questions textarea, Needs checkboxes (×5), Communications checkboxes (×4), Timeframe select, Submit</text></g><g transform="translate(66 1178) rotate(0 130 12.5)"><text x="0" y="12.61025390625" font-family="Helvetica, Segoe UI Emoji" font-size="13px" fill="#1f2937" text-anchor="start" style="white-space: pre;" direction="ltr" dominant-baseline="alphabetic">/company</text></g><g transform="translate(336 1178) rotate(0 530 11.5)"><text x="0" y="11.640234374999999" font-family="Helvetica, Segoe UI Emoji" font-size="12px" fill="#6b7280" text-anchor="start" style="white-space: pre;" direction="ltr" dominant-baseline="alphabetic">Company Profile (turbines-clouds.webp), Partners/Affiliations (AWEA, OPTO 22, Landis+Gyr, DWPA), Privacy — anchors: #Partners  #Privacy</text></g><g stroke-linecap="round" transform="translate(50 1224) rotate(0 680 24)"><path d="M0 0 C274.13 0, 548.26 0, 1360 0 M0 0 C345.23 0, 690.47 0, 1360 0 M1360 0 C1360 10.87, 1360 21.74, 1360 48 M1360 0 C1360 19.1, 1360 38.21, 1360 48 M1360 48 C1079.17 48, 798.34 48, 0 48 M1360 48 C1038.48 48, 716.95 48, 0 48 M0 48 C0 30.75, 0 13.51, 0 0 M0 48 C0 32.19, 0 16.37, 0 0" stroke="#9ca3af" stroke-width="1" fill="none"></path></g><g transform="translate(66 1230) rotate(0 130 12.5)"><text x="0" y="12.61025390625" font-family="Helvetica, Segoe UI Emoji" font-size="13px" fill="#1f2937" text-anchor="start" style="white-space: pre;" direction="ltr" dominant-baseline="alphabetic">/windenergytutorial</text></g><g transform="translate(336 1230) rotate(0 530 11.5)"><text x="0" y="11.640234374999999" font-family="Helvetica, Segoe UI Emoji" font-size="12px" fill="#6b7280" text-anchor="start" style="white-space: pre;" direction="ltr" dominant-baseline="alphabetic">What is Wind Energy, What is a Wind Turbine, How Turbines Work, Wind Facts (17 items), Glossary (30+ terms) — anchors: #Facts  #Glossary</text></g><g transform="translate(66 1282) rotate(0 130 12.5)"><text x="0" y="12.61025390625" font-family="Helvetica, Segoe UI Emoji" font-size="13px" fill="#1f2937" text-anchor="start" style="white-space: pre;" direction="ltr" dominant-baseline="alphabetic">/careers</text></g><g transform="translate(336 1282) rotate(0 530 11.5)"><text x="0" y="11.640234374999999" font-family="Helvetica, Segoe UI Emoji" font-size="12px" fill="#6b7280" text-anchor="start" style="white-space: pre;" direction="ltr" dominant-baseline="alphabetic">North American Jobs (SCADA Engineer, SCADA Programmer), European Union Jobs, Applicant Privacy Policy — anchors: #NorthAmericanJobs  #EuropeanUnionJobs  #PrivacyPolicy</text></g><g stroke-linecap="round" transform="translate(10 1362) rotate(0 720 130)"><path d="M0 0 C290.32 0, 580.64 0, 1440 0 M0 0 C538.25 0, 1076.5 0, 1440 0 M1440 0 C1440 98.22, 1440 196.44, 1440 260 M1440 0 C1440 91.21, 1440 182.42, 1440 260 M1440 260 C1120.87 260, 801.73 260, 0 260 M1440 260 C1086.47 260, 732.94 260, 0 260 M0 260 C0 164.79, 0 69.58, 0 0 M0 260 C0 196.39, 0 132.77, 0 0" stroke="#6b7280" stroke-width="2" fill="none"></path></g><g stroke-linecap="round" transform="translate(10 1362) rotate(0 720 25)"><path d="M0 0 C290.33 0, 580.66 0, 1440 0 M0 0 C457.59 0, 915.19 0, 1440 0 M1440 0 C1440 12.4, 1440 24.8, 1440 50 M1440 0 C1440 15.07, 1440 30.14, 1440 50 M1440 50 C943.71 50, 447.42 50, 0 50 M1440 50 C968.65 50, 497.3 50, 0 50 M0 50 C0 37.62, 0 25.24, 0 0 M0 50 C0 32.61, 0 15.23, 0 0" stroke="#3b82f6" stroke-width="1" fill="none"></path></g><g transform="translate(230 1376) rotate(0 500 14.5)"><text x="500" y="15.5203125" font-family="Helvetica, Segoe UI Emoji" font-size="16px" fill="#1f2937" text-anchor="middle" style="white-space: pre;" direction="ltr" dominant-baseline="alphabetic">Control Systems Integration</text></g><g stroke-linecap="round" transform="translate(10 1412) rotate(0 240 105)"><path d="M0 0 C96.79 0, 193.57 0, 480 0 M0 0 C98.76 0, 197.52 0, 480 0 M480 0 C480 81.6, 480 163.2, 480 210 M480 0 C480 42.52, 480 85.05, 480 210 M480 210 C292.46 210, 104.93 210, 0 210 M480 210 C340.34 210, 200.68 210, 0 210 M0 210 C0 165.83, 0 121.67, 0 0 M0 210 C0 135.7, 0 61.41, 0 0" stroke="#9ca3af" stroke-width="1" fill="none"></path></g><g transform="translate(26 1428) rotate(0 224 37)"><text x="0" y="11.640234374999999" font-family="Helvetica, Segoe UI Emoji" font-size="12px" fill="#6b7280" text-anchor="start" style="white-space: pre;" direction="ltr" dominant-baseline="alphabetic">SCADA Solutions, Inc.</text><text x="0" y="28.440234374999996" font-family="Helvetica, Segoe UI Emoji" font-size="12px" fill="#6b7280" text-anchor="start" style="white-space: pre;" direction="ltr" dominant-baseline="alphabetic">© 2024 All Rights Reserved</text><text x="0" y="45.24023437499999" font-family="Helvetica, Segoe UI Emoji" font-size="12px" fill="#6b7280" text-anchor="start" style="white-space: pre;" direction="ltr" dominant-baseline="alphabetic"></text><text x="0" y="62.04023437499999" font-family="Helvetica, Segoe UI Emoji" font-size="12px" fill="#6b7280" text-anchor="start" style="white-space: pre;" direction="ltr" dominant-baseline="alphabetic">CA License #777306</text></g><g stroke-linecap="round" transform="translate(490 1412) rotate(0 240 105)"><path d="M0 0 C96.79 0, 193.59 0, 480 0 M0 0 C140.99 0, 281.98 0, 480 0 M480 0 C480 69.11, 480 138.23, 480 210 M480 0 C480 63.76, 480 127.52, 480 210 M480 210 C366.36 210, 252.72 210, 0 210 M480 210 C357.79 210, 235.58 210, 0 210 M0 210 C0 131.66, 0 53.31, 0 0 M0 210 C0 134.42, 0 58.85, 0 0" stroke="#9ca3af" stroke-width="1" fill="none"></path></g><g transform="translate(506 1428) rotate(0 224 37)"><text x="224" y="11.640234374999999" font-family="Helvetica, Segoe UI Emoji" font-size="12px" fill="#6b7280" text-anchor="middle" style="white-space: pre;" direction="ltr" dominant-baseline="alphabetic">Home  |  Services  |  Products</text><text x="224" y="28.440234374999996" font-family="Helvetica, Segoe UI Emoji" font-size="12px" fill="#6b7280" text-anchor="middle" style="white-space: pre;" direction="ltr" dominant-baseline="alphabetic">Company  |  Wind Power  |  Careers</text><text x="224" y="45.24023437499999" font-family="Helvetica, Segoe UI Emoji" font-size="12px" fill="#6b7280" text-anchor="middle" style="white-space: pre;" direction="ltr" dominant-baseline="alphabetic"></text><text x="224" y="62.04023437499999" font-family="Helvetica, Segoe UI Emoji" font-size="12px" fill="#6b7280" text-anchor="middle" style="white-space: pre;" direction="ltr" dominant-baseline="alphabetic">LinkedIn</text></g><g stroke-linecap="round" transform="translate(970 1412) rotate(0 240 105)"><path d="M0 0 C96.8 0, 193.61 0, 480 0 M0 0 C183.22 0, 366.43 0, 480 0 M480 0 C480 56.62, 480 113.25, 480 210 M480 0 C480 43, 480 86, 480 210 M480 210 C344.26 210, 208.51 210, 0 210 M480 210 C375.25 210, 270.49 210, 0 210 M0 210 C0 139.48, 0 68.96, 0 0 M0 210 C0 133.15, 0 56.29, 0 0" stroke="#9ca3af" stroke-width="1" fill="none"></path></g><g transform="translate(986 1428) rotate(0 224 37)"><text x="448" y="11.640234374999999" font-family="Helvetica, Segoe UI Emoji" font-size="12px" fill="#6b7280" text-anchor="end" style="white-space: pre;" direction="ltr" dominant-baseline="alphabetic">949-509-9605</text><text x="448" y="28.440234374999996" font-family="Helvetica, Segoe UI Emoji" font-size="12px" fill="#6b7280" text-anchor="end" style="white-space: pre;" direction="ltr" dominant-baseline="alphabetic">info@scadasolutions.com</text><text x="448" y="45.24023437499999" font-family="Helvetica, Segoe UI Emoji" font-size="12px" fill="#6b7280" text-anchor="end" style="white-space: pre;" direction="ltr" dominant-baseline="alphabetic">6789 Quail Hill Pkwy, Suite #405</text><text x="448" y="62.04023437499999" font-family="Helvetica, Segoe UI Emoji" font-size="12px" fill="#6b7280" text-anchor="end" style="white-space: pre;" direction="ltr" dominant-baseline="alphabetic">Irvine, CA 92603</text></g></svg>